<?xml version="1.0" encoding="UTF-8"?>
<!-- Uploaded to: SVG Repo, www.svgrepo.com, Generator: SVG Repo Mixer Tools -->
<svg width="800px" height="800px" viewBox="-1 0 20 20" version="1.1" xmlns="http://www.w3.org/2000/svg" xmlns:xlink="http://www.w3.org/1999/xlink">
    <title>multimedia / 11 - multimedia, pause icon</title>
    <g id="Free-Icons" stroke="none" stroke-width="1" fill="none" fill-rule="evenodd" stroke-linecap="round" stroke-linejoin="round">
        <g transform="translate(-896.000000, -378.000000)" id="Group" stroke="#000000" stroke-width="2">
            <g transform="translate(893.000000, 376.000000)" id="Shape">
                <path d="M5.77777778,21 C4.79593822,21 4,20.0050772 4,18.7777778 L4,5.22222222 C4,3.99492278 4.79593822,3 5.77777778,3 L8.22222222,3 C9.20406178,3 10,3.99492278 10,5.22222222 L10,18.7777778 C10,20.0050772 9.20406178,21 8.22222222,21 L5.77777778,21 Z">
</path>
                <path d="M14,5.22222222 C14,3.99492278 14.7959382,3 15.7777778,3 L18.2222222,3 C19.2040618,3 20,3.99492278 20,5.22222222 L20,18.7777778 C20,20.0050772 19.2040618,21 18.2222222,21 L15.7777778,21 C14.7959382,21 14,20.0050772 14,18.7777778 L14,5.22222222 Z">
</path>
            </g>
        </g>
    </g>
</svg>